<svg id="Camada_1" data-name="Camada 1" xmlns="http://www.w3.org/2000/svg" viewBox="0 0 927.03 627.47"><defs><style>.cls-1{fill:#01316f;}.cls-2{fill:#accae5;}</style></defs><title>Logo vetorizada</title><path class="cls-1" d="M766.5,484.18l126,141.48s11,6.32,22.84-3.71S929,602.9,926.08,597.06,799.8,454.8,799.8,454.8s3-2.79,1.2-5-11.34,6.32-11.34,6.32l-26.8,23.72s-3.8,2.82-2.34,4.9S763.8,486.26,766.5,484.18Z" transform="translate(-0.29 -0.16)"/><path class="cls-1" d="M627.62,524.62l-5.2-216.13L694,237l153.25,8.66L898,301.56,893,521.9h0l-41.35,57.18h0L833.34,597.9H692.23Zm178.49,10.89,28.47-58.67h0l4-171.81-146.31,8.66,13.86,235.44,100-13.62Z" transform="translate(-0.29 -0.16)"/><path class="cls-2" d="M533.91,506l3.46-308.47-87.14,5.2L464.81,511,397.5,515.7v46.8l279.13,16.44,7.3-83.3Zm-54.2,4.74L477.11,462l11.3-1.08,2.61,49ZM507,508.05l-2.68-49.18,11.32-1.1,2.81,49.3Z" transform="translate(-0.29 -0.16)"/><path class="cls-2" d="M432.62,115.14c3.1,11,8.55,19.42,19.88,22.54-1.81-2.32-3.8-4.52-5.4-7-7.27-11.11-7.37-22.84-2.76-34.92,3.05-8,8.49-14.48,13.7-21.08,7.22-9.14,14.93-17.91,20.77-28.07,4.69-8.17,8.32-16.76,9.32-26.21.73-6.93.3-13.8-2.91-20.26,7.13,5.47,12.13,12.3,13.92,21.22,2,9.84-.14,19.28-3,28.59-2.14,6.92-4.83,13.68-6.77,20.66-3,10.84-1.26,21,6.07,29.76a24.21,24.21,0,0,0,9.72,6.8c-1.62-4-3.36-7.61-4.59-11.4-4.24-13-.39-23.94,11.12-32.07,1.91-1.34,3.94-2.51,6-3.78a90.42,90.42,0,0,0-2.75,8.64,29.59,29.59,0,0,0,2.65,20.2c4.35,8.5,9,16.83,13.33,25.36a55.71,55.71,0,0,1,5.95,18.72c1.18,10.16-1.85,19.06-8.08,26.9a65.24,65.24,0,0,1-39.24,24c-8,1.62-15.7-.2-23-3.22-18.47-7.64-30.07-21.26-34.27-40.9A57.74,57.74,0,0,1,432.62,115.14Z" transform="translate(-0.29 -0.16)"/><path class="cls-1" d="M260.71,596.92l-47.92-22.3,70.38-257.86,85.17-25.57L472.36,571l-68.6,34-24.21-88.83-97.82,2.31-17,62.89Q262.25,591.16,260.71,596.92Zm69.81-259.4L294.08,471.75l75.42,8.06Z" transform="translate(-0.29 -0.16)"/><path class="cls-1" d="M193.88,334.64c.16.34.33.66.5,1-.17-.82-.75-3-1.74-6.43q-2.71-8.91-6.18-21.05l-10.15-32.92L84,292.8,85.7,515.86l69.81,17.58,43.57-61.15L270.38,502l-38.12,80.21L85.7,603,.29,530,28,231.66l197.07-17.33,36.64,108.18Z" transform="translate(-0.29 -0.16)"/></svg>